<svg width="12" height="12" viewBox="0 0 12 12" fill="none" xmlns="http://www.w3.org/2000/svg">
<path d="M10.5 11H1.5C1.295 11 1.125 10.83 1.125 10.625C1.125 10.42 1.295 10.25 1.5 10.25H10.5C10.705 10.25 10.875 10.42 10.875 10.625C10.875 10.83 10.705 11 10.5 11Z" fill="white"/>
<path d="M9.51028 1.74002C8.54028 0.770018 7.59028 0.745018 6.59528 1.74002L5.99028 2.34502C5.94028 2.39502 5.92028 2.47502 5.94028 2.54502C6.32028 3.87002 7.38028 4.93002 8.70528 5.31002C8.72528 5.31502 8.74528 5.32002 8.76528 5.32002C8.82028 5.32002 8.87028 5.30002 8.91028 5.26002L9.51028 4.65502C10.0053 4.16502 10.2453 3.69002 10.2453 3.21002C10.2503 2.71502 10.0103 2.23502 9.51028 1.74002Z" fill="white"/>
<path d="M7.80516 5.76502C7.66016 5.69502 7.52016 5.62502 7.38516 5.54502C7.27516 5.48002 7.17016 5.41002 7.06516 5.33502C6.98016 5.28002 6.88016 5.20002 6.78516 5.12002C6.77516 5.11502 6.74016 5.08502 6.70016 5.04502C6.53516 4.90502 6.35016 4.72502 6.18516 4.52502C6.17016 4.51502 6.14516 4.48002 6.11016 4.43502C6.06016 4.37502 5.97516 4.27502 5.90016 4.16002C5.84016 4.08502 5.77016 3.97502 5.70516 3.86502C5.62516 3.73002 5.55516 3.59502 5.48516 3.45502C5.39338 3.25835 5.13525 3.19993 4.98179 3.35339L2.17016 6.16502C2.10516 6.23002 2.04516 6.35502 2.03016 6.44002L1.76016 8.35502C1.71016 8.69502 1.80516 9.01502 2.01516 9.23002C2.19516 9.40502 2.44516 9.50002 2.71516 9.50002C2.77516 9.50002 2.83516 9.49502 2.89516 9.48502L4.81516 9.21502C4.90516 9.20002 5.03016 9.14002 5.09016 9.07502L7.90643 6.25875C8.05682 6.10836 8.00032 5.84959 7.80516 5.76502Z" fill="white"/>
</svg>
