<svg width="10" height="10" viewBox="0 0 10 10" fill="none" xmlns="http://www.w3.org/2000/svg">
<path d="M4.99968 0.833313C2.69967 0.833313 0.833008 2.69998 0.833008 4.99998C0.833008 7.29998 2.69967 9.16665 4.99968 9.16665C7.29968 9.16665 9.16634 7.29998 9.16634 4.99998C9.16634 2.69998 7.29968 0.833313 4.99968 0.833313ZM6.67884 5.22081L5.42884 6.47081C5.36634 6.53331 5.28718 6.56248 5.20801 6.56248C5.12884 6.56248 5.04968 6.53331 4.98718 6.47081C4.86634 6.34998 4.86634 6.14998 4.98718 6.02915L5.70384 5.31248H3.54134C3.37051 5.31248 3.22884 5.17081 3.22884 4.99998C3.22884 4.82915 3.37051 4.68748 3.54134 4.68748H5.70384L4.98718 3.97081C4.86634 3.84998 4.86634 3.64998 4.98718 3.52915C5.10801 3.40831 5.30801 3.40831 5.42884 3.52915L6.67884 4.77915C6.79968 4.89998 6.79968 5.09998 6.67884 5.22081Z" fill="#95A7B3"/>
</svg>
