<svg width="10" height="10" viewBox="0 0 10 10" fill="none" xmlns="http://www.w3.org/2000/svg">
<path d="M5.00016 0.833374C2.70016 0.833374 0.833496 2.70004 0.833496 5.00004C0.833496 7.30004 2.70016 9.16671 5.00016 9.16671C7.30016 9.16671 9.16683 7.30004 9.16683 5.00004C9.16683 2.70004 7.30016 0.833374 5.00016 0.833374ZM6.67933 5.22088L5.42933 6.47088C5.36683 6.53338 5.28766 6.56254 5.2085 6.56254C5.12933 6.56254 5.05016 6.53338 4.98766 6.47088C4.86683 6.35004 4.86683 6.15004 4.98766 6.02921L5.70433 5.31254H3.54183C3.371 5.31254 3.22933 5.17088 3.22933 5.00004C3.22933 4.82921 3.371 4.68754 3.54183 4.68754H5.70433L4.98766 3.97088C4.86683 3.85004 4.86683 3.65004 4.98766 3.52921C5.1085 3.40838 5.3085 3.40838 5.42933 3.52921L6.67933 4.77921C6.80016 4.90004 6.80016 5.10004 6.67933 5.22088Z" fill="#53B2F4"/>
</svg>
