<svg width="18" height="18" viewBox="0 0 18 18" fill="none" xmlns="http://www.w3.org/2000/svg">
<path d="M8.97754 1.5C4.83754 1.5 1.47754 4.86 1.47754 9C1.47754 13.14 4.83754 16.5 8.97754 16.5C13.1175 16.5 16.4775 13.14 16.4775 9C16.4775 4.86 13.125 1.5 8.97754 1.5ZM11.79 9.2625L9.00004 12.435L8.67004 12.81C8.21254 13.3275 7.83754 13.1925 7.83754 12.495V9.525H6.56254C5.98504 9.525 5.82754 9.1725 6.21004 8.7375L9.00004 5.565L9.33004 5.19C9.78754 4.6725 10.1625 4.8075 10.1625 5.505V8.475H11.4375C12.015 8.475 12.1725 8.8275 11.79 9.2625Z" fill="#696A6C"/>
</svg>
