<svg width="10" height="10" viewBox="0 0 10 10" fill="none" xmlns="http://www.w3.org/2000/svg">
<path d="M4.99968 0.833252C2.69967 0.833252 0.833008 2.69992 0.833008 4.99992C0.833008 7.29992 2.69967 9.16659 4.99968 9.16659C7.29968 9.16659 9.16634 7.29992 9.16634 4.99992C9.16634 2.69992 7.29968 0.833252 4.99968 0.833252ZM6.67884 5.22075L5.42884 6.47075C5.36634 6.53325 5.28718 6.56242 5.20801 6.56242C5.12884 6.56242 5.04968 6.53325 4.98718 6.47075C4.86634 6.34992 4.86634 6.14992 4.98718 6.02909L5.70384 5.31242H3.54134C3.37051 5.31242 3.22884 5.17075 3.22884 4.99992C3.22884 4.82909 3.37051 4.68742 3.54134 4.68742H5.70384L4.98718 3.97075C4.86634 3.84992 4.86634 3.64992 4.98718 3.52909C5.10801 3.40825 5.30801 3.40825 5.42884 3.52909L6.67884 4.77909C6.79968 4.89992 6.79968 5.09992 6.67884 5.22075Z" fill="#FF7878"/>
</svg>
