<svg width="16" height="16" viewBox="0 0 16 16" fill="none" xmlns="http://www.w3.org/2000/svg">
<path d="M10.6667 3.33331C10.0538 3.33331 9.447 3.45402 8.88081 3.68854C8.31462 3.92306 7.80018 4.26681 7.36684 4.70015C6.9335 5.13349 6.58975 5.64794 6.35523 6.21412C6.12071 6.78031 6 7.38714 6 7.99998C6 8.61282 6.12071 9.21965 6.35523 9.78584C6.58975 10.352 6.9335 10.8665 7.36684 11.2998C7.80018 11.7332 8.31462 12.0769 8.88081 12.3114C9.447 12.5459 10.0538 12.6666 10.6667 12.6666C11.2795 12.6666 11.8863 12.5459 12.4525 12.3114C13.0187 12.0769 13.5332 11.7332 13.9665 11.2998C14.3998 10.8665 14.7436 10.352 14.9781 9.78584C15.2126 9.21965 15.3333 8.61282 15.3333 7.99998C15.3333 7.38714 15.2126 6.78031 14.9781 6.21412C14.7436 5.64794 14.3998 5.13349 13.9665 4.70015C13.5332 4.26681 13.0187 3.92306 12.4525 3.68854C11.8863 3.45402 11.2795 3.33331 10.6667 3.33331Z" fill="#3475A0"/>
<path d="M5.33317 3.33331C4.72034 3.33331 4.1135 3.45402 3.54731 3.68854C2.98113 3.92306 2.46668 4.26681 2.03334 4.70015C1.6 5.13349 1.25625 5.64794 1.02173 6.21412C0.787211 6.78031 0.666504 7.38714 0.666504 7.99998C0.666504 8.61282 0.787211 9.21965 1.02173 9.78584C1.25625 10.352 1.6 10.8665 2.03334 11.2998C2.46668 11.7332 2.98113 12.0769 3.54731 12.3114C4.1135 12.5459 4.72034 12.6666 5.33317 12.6666C5.94601 12.6666 6.55284 12.5459 7.11903 12.3114C7.68521 12.0769 8.19966 11.7332 8.633 11.2998C9.06634 10.8665 9.41009 10.352 9.64461 9.78584C9.87913 9.21965 9.99984 8.61282 9.99984 7.99998C9.99984 7.38714 9.87913 6.78031 9.64461 6.21412C9.41009 5.64794 9.06634 5.13349 8.633 4.70015C8.19966 4.26681 7.68521 3.92306 7.11903 3.68854C6.55284 3.45402 5.94601 3.33331 5.33317 3.33331Z" fill="#4AA2DD"/>
<path d="M6 7.99995C6 9.58495 6.792 10.9833 8 11.8266C9.208 10.9833 10 9.58495 10 7.99995C10 6.41495 9.208 5.01661 8 4.17328C6.792 5.01661 6 6.41495 6 7.99995Z" fill="#4291C6"/>
</svg>
