<svg width="14" height="14" viewBox="0 0 14 14" fill="none" xmlns="http://www.w3.org/2000/svg">
<path fill-rule="evenodd" clip-rule="evenodd" d="M1.16699 6.22414C1.16699 3.43099 3.40719 1.16669 6.17062 1.16669C7.49766 1.16669 8.77035 1.69952 9.70871 2.64798C10.6471 3.59644 11.1742 4.88282 11.1742 6.22414C11.1742 9.0173 8.93404 11.2816 6.17062 11.2816C3.40719 11.2816 1.16699 9.0173 1.16699 6.22414ZM11.0914 10.2984L12.5817 11.5013H12.6075C12.909 11.806 12.909 12.3001 12.6075 12.6048C12.3061 12.9095 11.8172 12.9095 11.5157 12.6048L10.2791 11.1875C10.1622 11.0697 10.0964 10.9097 10.0964 10.7429C10.0964 10.5761 10.1622 10.4161 10.2791 10.2984C10.5045 10.0744 10.866 10.0744 11.0914 10.2984Z" fill="#979A9C"/>
</svg>
